# xmcd
#
# Track frame offsets:
#	150
#	17990
#	31151
#	47215
#	63558
#	77525
#	93460
#	110623
#	123331
#	140344
#	153832
#	167902
#	183668
#	200890
#
# Disc length: 2930 seconds
#
# Revision: 0
# Processed by: cddbd v1.5.2PL0 Copyright (c) Steve Scherf et al.
# Submitted via: audiograbber 1.83.01
#
DISCID=c20b700e
DTITLE=Mindy Ellis - Mindy Ellis
DYEAR=2006
DGENRE=Country
TTITLE0=Hickory Dickory Dock
TTITLE1=Life Is A River
TTITLE2=Sleepless
TTITLE3=My Heart Just Beats
TTITLE4=Giddy Up
TTITLE5=One Good Lovin' Man
TTITLE6=Muddy Water
TTITLE7=Blue Skies
TTITLE8=Car That Flies
TTITLE9=Man's Man
TTITLE10=Anything Like You
TTITLE11=Colorado
TTITLE12=I Got On This Train To Ride
TTITLE13=Will You Marry Me
EXTD=This girl rocks and can be heard live in Nashville at various bars
EXTT0=
EXTT1=
EXTT2=
EXTT3=
EXTT4=
EXTT5=
EXTT6=
EXTT7=
EXTT8=
EXTT9=
EXTT10=
EXTT11=
EXTT12=
EXTT13=
PLAYORDER=
